%
M48
M72
T01C0.0276
T02C0.0320
T03C0.0354
T04C0.0400
%
T01
X19480Y9680
X19480Y10680
X13980Y10680
X13980Y9680
X12930Y9680
X12930Y10680
X7430Y10680
X7430Y9680
X6380Y9680
X6380Y10680
X880Y10680
X880Y9680
T02
X1180Y16880
X2180Y16880
X5080Y16880
X6080Y16880
X7730Y16880
X8730Y16880
X11630Y16880
X12630Y16880
X14280Y16880
X15280Y16880
X18180Y16880
X19180Y16880
X18230Y12280
X18230Y11280
X18230Y10280
X18230Y9280
X18230Y8280
X18230Y7280
X18230Y6280
X18230Y5280
X18230Y4280
X18230Y3280
X15230Y3280
X15230Y4280
X15230Y5280
X15230Y6280
X15230Y7280
X15230Y8280
X15230Y9280
X15230Y10280
X15230Y11280
X15230Y12280
X11680Y12280
X11680Y11280
X11680Y10280
X11680Y9280
X11680Y8280
X11680Y7280
X11680Y6280
X11680Y5280
X11680Y4280
X11680Y3280
X8680Y3280
X8680Y4280
X8680Y5280
X8680Y6280
X8680Y7280
X8680Y8280
X8680Y9280
X8680Y10280
X8680Y11280
X8680Y12280
X5130Y12280
X5130Y11280
X5130Y10280
X5130Y9280
X5130Y8280
X5130Y7280
X5130Y6280
X5130Y5280
X5130Y4280
X5130Y3280
X2130Y3280
X2130Y4280
X2130Y5280
X2130Y6280
X2130Y7280
X2130Y8280
X2130Y9280
X2130Y10280
X2130Y11280
X2130Y12280
T03
X18230Y13680
X18230Y15180
X15230Y15180
X15230Y13680
X11680Y13680
X11680Y15180
X8680Y15180
X8680Y13680
X5130Y13680
X5130Y15180
X2130Y15180
X2130Y13680
T04
X3080Y19280
X4080Y19280
X9630Y19280
X10630Y19280
X16180Y19280
X17180Y19280
X19280Y15180
X19280Y13680
X19380Y12380
X14080Y12380
X12830Y12380
X12730Y13680
X14180Y13680
X14180Y15180
X12730Y15180
X7630Y15180
X6180Y15180
X6180Y13680
X6280Y12380
X7530Y12380
X7630Y13680
X1080Y13680
X980Y12380
X1080Y15180
X3140Y1080
X4140Y1080
X9690Y1080
X10690Y1080
X16240Y1080
X17240Y1080
M30
